<svg width="424" height="424" viewBox="0 0 424 424" fill="none" xmlns="http://www.w3.org/2000/svg">
<circle cx="212" cy="212" r="212" fill="white"/>
<circle cx="212" cy="212" r="192" fill="black"/>
<path d="M170.851 254.9C170.251 256.7 169.551 259 168.751 261.8C168.151 264.6 167.551 267.4 166.951 270.2C166.351 273 165.751 275.8 165.151 278.6C164.751 281.4 164.551 283.7 164.551 285.5C164.551 289.5 165.451 292.7 167.251 295.1C169.051 297.5 171.251 299.3 173.851 300.5C176.651 301.7 179.651 302.5 182.851 302.9C186.251 303.3 189.551 303.5 192.751 303.5C203.751 303.5 213.551 302.1 222.151 299.3C230.951 296.3 238.351 292.2 244.351 287C250.351 281.8 254.851 275.7 257.851 268.7C261.051 261.5 262.651 253.7 262.651 245.3C262.651 230.1 257.751 219 247.951 212C238.151 205 223.051 201.5 202.651 201.5H185.551L170.851 254.9ZM96.1508 305C102.151 305 107.251 304.6 111.451 303.8C115.651 303 119.251 301.4 122.251 299C125.251 296.4 127.851 292.8 130.051 288.2C132.251 283.4 134.451 277.1 136.651 269.3L172.051 137C174.251 128.2 175.351 121.3 175.351 116.3C175.351 109.5 173.251 104.8 169.051 102.2C164.851 99.4 157.751 98 147.751 98L151.051 86H231.451C240.051 86 248.851 86.8 257.851 88.4C266.851 89.8 274.951 92.5 282.151 96.5C289.551 100.3 295.551 105.6 300.151 112.4C304.951 119 307.351 127.5 307.351 137.9C307.351 147.7 305.351 155.9 301.351 162.5C297.351 169.1 292.251 174.6 286.051 179C279.851 183.2 272.951 186.5 265.351 188.9C257.951 191.1 250.751 192.7 243.751 193.7V194.9C261.351 198.5 274.751 205.1 283.951 214.7C293.151 224.1 297.751 236.1 297.751 250.7C297.751 260.9 295.351 270.1 290.551 278.3C285.751 286.5 279.151 293.5 270.751 299.3C262.351 304.9 252.351 309.3 240.751 312.5C229.151 315.5 216.451 317 202.651 317H92.8508L96.1508 305ZM189.451 186.2H211.651C221.051 186.2 229.651 185 237.451 182.6C245.451 180.2 252.251 176.8 257.851 172.4C263.451 168 267.751 162.8 270.751 156.8C273.951 150.6 275.551 143.8 275.551 136.4C275.551 123.4 271.851 114 264.451 108.2C257.251 102.4 244.951 99.5 227.551 99.5C222.151 99.5 217.751 101.4 214.351 105.2C211.151 108.8 208.451 114.9 206.251 123.5L189.451 186.2Z" fill="white"/>
</svg>
